<?xml version="1.0" encoding="UTF-8"?>
<svg version="1.1" xmlns="http://www.w3.org/2000/svg" width="500" height="500">
<path d="M0 0 C0.88602402 0.00222061 1.77204803 0.00444122 2.68492126 0.00672913 C3.69993713 0.00684998 4.714953 0.00697083 5.76072693 0.00709534 C6.83520081 0.0122113 7.90967468 0.01732727 9.01670837 0.02259827 C9.99861145 0.02360535 10.98051453 0.02461243 11.99217224 0.02565002 C15.676144 0.03090007 19.36009918 0.04486119 23.04405212 0.05775452 C31.27342712 0.07837952 39.50280212 0.09900452 47.98155212 0.12025452 C47.98155212 16.62025452 47.98155212 33.12025452 47.98155212 50.12025452 C64.48155212 50.12025452 80.98155212 50.12025452 97.98155212 50.12025452 C97.98155212 66.95025452 97.98155212 83.78025452 97.98155212 101.12025452 C81.48155212 101.12025452 64.98155212 101.12025452 47.98155212 101.12025452 C47.98155212 117.62025452 47.98155212 134.12025452 47.98155212 151.12025452 C31.15155212 151.12025452 14.32155212 151.12025452 -3.01844788 151.12025452 C-3.01844788 134.62025452 -3.01844788 118.12025452 -3.01844788 101.12025452 C-19.18844788 101.12025452 -35.35844788 101.12025452 -52.01844788 101.12025452 C-52.01844788 84.62025452 -52.01844788 68.12025452 -52.01844788 51.12025452 C-35.84844788 51.12025452 -19.67844788 51.12025452 -3.01844788 51.12025452 C-3.03585022 45.72359436 -3.03585022 45.72359436 -3.05360413 40.21791077 C-3.06139345 36.74956857 -3.06747092 33.28122732 -3.07337952 29.81288147 C-3.07842137 27.39458279 -3.08525466 24.97628718 -3.09388733 22.55799866 C-3.10595944 19.09046168 -3.11167751 15.62296485 -3.11610413 12.15541077 C-3.12126541 11.06688309 -3.1264267 9.97835541 -3.13174438 8.85684204 C-3.13181992 7.85587997 -3.13189545 6.85491791 -3.13197327 5.82362366 C-3.13419388 4.93759964 -3.13641449 4.05157562 -3.13870239 3.13870239 C-2.97563215 0.4016012 -2.73710119 0.16307024 0 0 Z M-2.01844788 51.12025452 C-2.01844788 67.29025452 -2.01844788 83.46025452 -2.01844788 100.12025452 C14.15155212 100.12025452 30.32155212 100.12025452 46.98155212 100.12025452 C46.98155212 83.95025452 46.98155212 67.78025452 46.98155212 51.12025452 C30.81155212 51.12025452 14.64155212 51.12025452 -2.01844788 51.12025452 Z " fill="#000000" transform="translate(102.01844787597656,173.87974548339844)"/>
<path d="M0 0 C16.83 0 33.66 0 51 0 C51 16.83 51 33.66 51 51 C34.5 51 18 51 1 51 C1 67.5 1 84 1 101 C17.5 101 34 101 51 101 C51 117.83 51 134.66 51 152 C34.17 152 17.34 152 0 152 C0 135.17 0 118.34 0 101 C-16.5 101 -33 101 -50 101 C-50 84.5 -50 68 -50 51 C-33.5 51 -17 51 0 51 C0 34.17 0 17.34 0 0 Z " fill="#000000" transform="translate(299,174)"/>
<path d="M0 0 C16.83 0 33.66 0 51 0 C51 16.5 51 33 51 50 C34.17 50 17.34 50 0 50 C0 33.5 0 17 0 0 Z " fill="#F18021" transform="translate(399,275)"/>
<path d="M0 0 C0 16.5 0 33 0 50 C-8.25 50 -16.5 50 -25 50 C-23.02 47.69 -21.04 45.38 -19 43 C-17.32976457 41.00297937 -15.66185417 39.00400062 -14 37 C-17.63 33.37 -21.26 29.74 -25 26 C-23.21191769 22.42383539 -21.97149503 20.75067876 -19.1875 18.0625 C-18.46820313 17.36125 -17.74890625 16.66 -17.0078125 15.9375 C-16.01394531 14.9784375 -16.01394531 14.9784375 -15 14 C-14.195625 13.195625 -13.39125 12.39125 -12.5625 11.5625 C-11.716875 10.716875 -10.87125 9.87125 -10 9 C-9.25105469 8.23945313 -8.50210937 7.47890625 -7.73046875 6.6953125 C-6.91191406 5.86773437 -6.09335937 5.04015625 -5.25 4.1875 C-4.47140625 3.39730469 -3.6928125 2.60710937 -2.890625 1.79296875 C-1 0 -1 0 0 0 Z " fill="#17B1BF" transform="translate(450,275)"/>
<path d="M0 0 C4.06621956 3.48533105 7.88676267 6.76184853 11.62109375 10.5234375 C12.41064453 11.31621094 13.20019531 12.10898437 14.01367188 12.92578125 C14.81353516 13.73402344 15.61339844 14.54226563 16.4375 15.375 C17.26443359 16.20644531 18.09136719 17.03789062 18.94335938 17.89453125 C20.96455531 19.9274104 22.98336335 21.96259963 25 24 C23.41579763 27.8496735 20.95718753 30.28658565 18.02734375 33.203125 C17.54423233 33.6857782 17.06112091 34.1684314 16.56336975 34.66571045 C15.54615946 35.67991024 14.52653039 36.69168919 13.50463867 37.70117188 C11.93410245 39.25335786 10.37180962 40.81349204 8.81054688 42.375 C1.14751637 50 1.14751637 50 0 50 C0 33.5 0 17 0 0 Z " fill="#EBDA00" transform="translate(399,275)"/>
<path d="M0 0 C7.40219248 6.17340547 7.40219248 6.17340547 10.4375 9.875 C10.93121094 10.47054688 11.42492187 11.06609375 11.93359375 11.6796875 C12.28550781 12.11539062 12.63742187 12.55109375 13 13 C9.75427019 17.87948642 6.33707274 22.33863563 1 25 C-7.20135313 26.54247456 -15.73670498 25.74772275 -24 25 C-19.18132753 19.19108254 -13.98743592 13.86934448 -8.625 8.5625 C-7.79355469 7.73556641 -6.96210938 6.90863281 -6.10546875 6.05664062 C-4.0725896 4.03544469 -2.03740037 2.01663665 0 0 Z " fill="#C42026" transform="translate(424,300)"/>
<path d="M0 0 C0 8.25 0 16.5 0 25 C-8.25 25 -16.5 25 -25 25 C-18.23833314 17.11138867 -18.23833314 17.11138867 -14.51171875 13.37890625 C-13.72345703 12.58935547 -12.93519531 11.79980469 -12.12304688 10.98632812 C-11.31931641 10.18646484 -10.51558594 9.38660156 -9.6875 8.5625 C-8.45290039 7.32209961 -8.45290039 7.32209961 -7.19335938 6.05664062 C-6.41154297 5.27611328 -5.62972656 4.49558594 -4.82421875 3.69140625 C-4.11354248 2.98185791 -3.40286621 2.27230957 -2.6706543 1.54125977 C-1 0 -1 0 0 0 Z " fill="#69BA45" transform="translate(450,300)"/>
<path d="M0 0 C0 8.25 0 16.5 0 25 C-4.66666667 21 -9.33333333 17 -14 13 C-12.88085919 11.88085919 -11.76137493 10.76206063 -10.640625 9.64453125 C-9.39599682 8.39693967 -8.15749029 7.14323731 -6.921875 5.88671875 C-5.84679687 4.79810547 -5.84679687 4.79810547 -4.75 3.6875 C-4.06421875 2.99011719 -3.3784375 2.29273438 -2.671875 1.57421875 C-1 0 -1 0 0 0 Z " fill="#8665AA" transform="translate(450,275)"/>
<path d="M0 0 C1.06816445 0.86807601 2.12918085 1.74494783 3.1875 2.625 C3.77917969 3.11226563 4.37085938 3.59953125 4.98046875 4.1015625 C7.54686166 6.51407112 9.74508093 9.29409712 12 12 C4.41 12 -3.18 12 -11 12 C-7.37613 7.77215167 -3.95773294 3.84132903 0 0 Z " fill="#DC42B2" transform="translate(424,300)"/>
</svg>
