<svg width="132" height="26" viewBox="0 0 132 26" fill="none" xmlns="http://www.w3.org/2000/svg">
    <rect x="1" y="0.5" width="130" height="25" rx="12.5" stroke="black" />
    <rect x="1" y="0.5" width="130" height="25" rx="12.5" stroke="url(#paint0_linear_1789_5710)" />
    <path
        d="M22.4999 17V13.5H24.4999V17H22.4999ZM19.4999 17V9H21.4999V17H19.4999ZM16.4999 17V11.5H18.4999V17H16.4999Z"
        fill="#67B2FC" />
    <path
        d="M32.448 7.6C33.224 7.6 33.868 7.86 34.38 8.38C34.9 8.892 35.16 9.532 35.16 10.3C35.16 11.06 34.9 11.7 34.38 12.22C33.868 12.74 33.224 13 32.448 13H30.516V16H29.4V7.6H32.448ZM32.448 11.956C32.912 11.956 33.296 11.8 33.6 11.488C33.904 11.168 34.056 10.772 34.056 10.3C34.056 9.82 33.904 9.424 33.6 9.112C33.296 8.8 32.912 8.644 32.448 8.644H30.516V11.956H32.448ZM40.8571 15.244C40.2411 15.852 39.4931 16.156 38.6131 16.156C37.7331 16.156 36.9851 15.852 36.3691 15.244C35.7611 14.636 35.4571 13.888 35.4571 13C35.4571 12.112 35.7611 11.364 36.3691 10.756C36.9851 10.148 37.7331 9.844 38.6131 9.844C39.4931 9.844 40.2411 10.148 40.8571 10.756C41.4731 11.364 41.7811 12.112 41.7811 13C41.7811 13.888 41.4731 14.636 40.8571 15.244ZM38.6131 15.136C39.2131 15.136 39.7171 14.932 40.1251 14.524C40.5331 14.116 40.7371 13.608 40.7371 13C40.7371 12.392 40.5331 11.884 40.1251 11.476C39.7171 11.068 39.2131 10.864 38.6131 10.864C38.0211 10.864 37.5211 11.068 37.1131 11.476C36.7051 11.884 36.5011 12.392 36.5011 13C36.5011 13.608 36.7051 14.116 37.1131 14.524C37.5211 14.932 38.0211 15.136 38.6131 15.136ZM43.9358 11.008C44.2798 10.264 44.9038 9.892 45.8078 9.892V10.984C45.2958 10.96 44.8558 11.096 44.4878 11.392C44.1198 11.688 43.9358 12.164 43.9358 12.82V16H42.8918V10H43.9358V11.008ZM50.114 11.008H48.518V14.26C48.518 14.556 48.574 14.768 48.686 14.896C48.806 15.016 48.986 15.08 49.226 15.088C49.466 15.088 49.762 15.08 50.114 15.064V16C49.202 16.12 48.534 16.048 48.11 15.784C47.686 15.512 47.474 15.004 47.474 14.26V11.008H46.286V10H47.474V8.632L48.518 8.32V10H50.114V11.008ZM54.0093 8.452C52.9533 8.364 52.4253 8.82 52.4253 9.82V10H54.0093V11.008H52.4253V16H51.3813V11.008H50.4213V10H51.3813V9.82C51.3813 9.012 51.6053 8.4 52.0533 7.984C52.5093 7.568 53.1613 7.388 54.0093 7.444V8.452ZM59.4201 15.244C58.8041 15.852 58.0561 16.156 57.1761 16.156C56.2961 16.156 55.5481 15.852 54.9321 15.244C54.3241 14.636 54.0201 13.888 54.0201 13C54.0201 12.112 54.3241 11.364 54.9321 10.756C55.5481 10.148 56.2961 9.844 57.1761 9.844C58.0561 9.844 58.8041 10.148 59.4201 10.756C60.0361 11.364 60.3441 12.112 60.3441 13C60.3441 13.888 60.0361 14.636 59.4201 15.244ZM57.1761 15.136C57.7761 15.136 58.2801 14.932 58.6881 14.524C59.0961 14.116 59.3001 13.608 59.3001 13C59.3001 12.392 59.0961 11.884 58.6881 11.476C58.2801 11.068 57.7761 10.864 57.1761 10.864C56.5841 10.864 56.0841 11.068 55.6761 11.476C55.2681 11.884 55.0641 12.392 55.0641 13C55.0641 13.608 55.2681 14.116 55.6761 14.524C56.0841 14.932 56.5841 15.136 57.1761 15.136ZM61.4548 16V7.24H62.4988V16H61.4548ZM64.4995 8.908C64.2995 8.908 64.1315 8.84 63.9955 8.704C63.8595 8.568 63.7915 8.404 63.7915 8.212C63.7915 8.02 63.8595 7.856 63.9955 7.72C64.1315 7.576 64.2995 7.504 64.4995 7.504C64.6915 7.504 64.8555 7.576 64.9915 7.72C65.1275 7.856 65.1955 8.02 65.1955 8.212C65.1955 8.404 65.1275 8.568 64.9915 8.704C64.8555 8.84 64.6915 8.908 64.4995 8.908ZM63.9715 16V10H65.0155V16H63.9715ZM71.5523 15.244C70.9363 15.852 70.1883 16.156 69.3083 16.156C68.4283 16.156 67.6803 15.852 67.0643 15.244C66.4563 14.636 66.1523 13.888 66.1523 13C66.1523 12.112 66.4563 11.364 67.0643 10.756C67.6803 10.148 68.4283 9.844 69.3083 9.844C70.1883 9.844 70.9363 10.148 71.5523 10.756C72.1683 11.364 72.4763 12.112 72.4763 13C72.4763 13.888 72.1683 14.636 71.5523 15.244ZM69.3083 15.136C69.9083 15.136 70.4123 14.932 70.8203 14.524C71.2283 14.116 71.4323 13.608 71.4323 13C71.4323 12.392 71.2283 11.884 70.8203 11.476C70.4123 11.068 69.9083 10.864 69.3083 10.864C68.7163 10.864 68.2163 11.068 67.8083 11.476C67.4003 11.884 67.1963 12.392 67.1963 13C67.1963 13.608 67.4003 14.116 67.8083 14.524C68.2163 14.932 68.7163 15.136 69.3083 15.136ZM81.435 10H82.479V16H81.435V14.968C80.915 15.76 80.159 16.156 79.167 16.156C78.327 16.156 77.611 15.852 77.019 15.244C76.427 14.628 76.131 13.88 76.131 13C76.131 12.12 76.427 11.376 77.019 10.768C77.611 10.152 78.327 9.844 79.167 9.844C80.159 9.844 80.915 10.24 81.435 11.032V10ZM79.299 15.148C79.907 15.148 80.415 14.944 80.823 14.536C81.231 14.12 81.435 13.608 81.435 13C81.435 12.392 81.231 11.884 80.823 11.476C80.415 11.06 79.907 10.852 79.299 10.852C78.699 10.852 78.195 11.06 77.787 11.476C77.379 11.884 77.175 12.392 77.175 13C77.175 13.608 77.379 14.12 77.787 14.536C78.195 14.944 78.699 15.148 79.299 15.148ZM86.9288 9.844C87.6328 9.844 88.1968 10.068 88.6208 10.516C89.0448 10.956 89.2568 11.556 89.2568 12.316V16H88.2128V12.376C88.2128 11.888 88.0808 11.512 87.8168 11.248C87.5528 10.976 87.1888 10.84 86.7248 10.84C86.2048 10.84 85.7848 11.004 85.4648 11.332C85.1448 11.652 84.9848 12.148 84.9848 12.82V16H83.9408V10H84.9848V10.864C85.4088 10.184 86.0568 9.844 86.9288 9.844ZM95.5622 10H96.6062V16H95.5622V14.968C95.0422 15.76 94.2862 16.156 93.2942 16.156C92.4542 16.156 91.7382 15.852 91.1462 15.244C90.5542 14.628 90.2582 13.88 90.2582 13C90.2582 12.12 90.5542 11.376 91.1462 10.768C91.7382 10.152 92.4542 9.844 93.2942 9.844C94.2862 9.844 95.0422 10.24 95.5622 11.032V10ZM93.4262 15.148C94.0342 15.148 94.5422 14.944 94.9502 14.536C95.3582 14.12 95.5622 13.608 95.5622 13C95.5622 12.392 95.3582 11.884 94.9502 11.476C94.5422 11.06 94.0342 10.852 93.4262 10.852C92.8262 10.852 92.3222 11.06 91.9142 11.476C91.5062 11.884 91.3022 12.392 91.3022 13C91.3022 13.608 91.5062 14.12 91.9142 14.536C92.3222 14.944 92.8262 15.148 93.4262 15.148ZM98.0679 16V7.24H99.1119V16H98.0679ZM104.773 10H105.889L103.441 16.372C103.185 17.052 102.825 17.568 102.361 17.92C101.905 18.28 101.377 18.44 100.777 18.4V17.428C101.513 17.484 102.053 17.076 102.397 16.204L102.505 15.976L99.8887 10H101.005L103.045 14.704L104.773 10ZM107.165 11.62C107.165 11.852 107.281 12.04 107.513 12.184C107.745 12.32 108.025 12.432 108.353 12.52C108.681 12.6 109.009 12.696 109.337 12.808C109.665 12.912 109.945 13.096 110.177 13.36C110.409 13.616 110.525 13.948 110.525 14.356C110.525 14.9 110.313 15.336 109.889 15.664C109.473 15.992 108.937 16.156 108.281 16.156C107.697 16.156 107.197 16.028 106.781 15.772C106.365 15.516 106.069 15.176 105.893 14.752L106.793 14.236C106.889 14.524 107.069 14.752 107.333 14.92C107.597 15.088 107.913 15.172 108.281 15.172C108.625 15.172 108.909 15.108 109.133 14.98C109.357 14.844 109.469 14.636 109.469 14.356C109.469 14.124 109.353 13.94 109.121 13.804C108.889 13.66 108.609 13.548 108.281 13.468C107.953 13.38 107.625 13.28 107.297 13.168C106.969 13.056 106.689 12.872 106.457 12.616C106.225 12.36 106.109 12.032 106.109 11.632C106.109 11.112 106.309 10.684 106.709 10.348C107.117 10.012 107.625 9.844 108.233 9.844C108.721 9.844 109.153 9.956 109.529 10.18C109.913 10.396 110.201 10.7 110.393 11.092L109.517 11.584C109.301 11.072 108.873 10.816 108.233 10.816C107.937 10.816 107.685 10.888 107.477 11.032C107.269 11.168 107.165 11.364 107.165 11.62ZM112.111 8.908C111.911 8.908 111.743 8.84 111.607 8.704C111.471 8.568 111.403 8.404 111.403 8.212C111.403 8.02 111.471 7.856 111.607 7.72C111.743 7.576 111.911 7.504 112.111 7.504C112.303 7.504 112.467 7.576 112.603 7.72C112.739 7.856 112.807 8.02 112.807 8.212C112.807 8.404 112.739 8.568 112.603 8.704C112.467 8.84 112.303 8.908 112.111 8.908ZM111.583 16V10H112.627V16H111.583ZM114.988 11.62C114.988 11.852 115.104 12.04 115.336 12.184C115.568 12.32 115.848 12.432 116.176 12.52C116.504 12.6 116.832 12.696 117.16 12.808C117.488 12.912 117.768 13.096 118 13.36C118.232 13.616 118.348 13.948 118.348 14.356C118.348 14.9 118.136 15.336 117.712 15.664C117.296 15.992 116.76 16.156 116.104 16.156C115.52 16.156 115.02 16.028 114.604 15.772C114.188 15.516 113.892 15.176 113.716 14.752L114.616 14.236C114.712 14.524 114.892 14.752 115.156 14.92C115.42 15.088 115.736 15.172 116.104 15.172C116.448 15.172 116.732 15.108 116.956 14.98C117.18 14.844 117.292 14.636 117.292 14.356C117.292 14.124 117.176 13.94 116.944 13.804C116.712 13.66 116.432 13.548 116.104 13.468C115.776 13.38 115.448 13.28 115.12 13.168C114.792 13.056 114.512 12.872 114.28 12.616C114.048 12.36 113.932 12.032 113.932 11.632C113.932 11.112 114.132 10.684 114.532 10.348C114.94 10.012 115.448 9.844 116.056 9.844C116.544 9.844 116.976 9.956 117.352 10.18C117.736 10.396 118.024 10.7 118.216 11.092L117.34 11.584C117.124 11.072 116.696 10.816 116.056 10.816C115.76 10.816 115.508 10.888 115.3 11.032C115.092 11.168 114.988 11.364 114.988 11.62Z"
        fill="#F1F1F1" fill-opacity="0.8" />
    <path
        d="M32.448 7.6C33.224 7.6 33.868 7.86 34.38 8.38C34.9 8.892 35.16 9.532 35.16 10.3C35.16 11.06 34.9 11.7 34.38 12.22C33.868 12.74 33.224 13 32.448 13H30.516V16H29.4V7.6H32.448ZM32.448 11.956C32.912 11.956 33.296 11.8 33.6 11.488C33.904 11.168 34.056 10.772 34.056 10.3C34.056 9.82 33.904 9.424 33.6 9.112C33.296 8.8 32.912 8.644 32.448 8.644H30.516V11.956H32.448ZM40.8571 15.244C40.2411 15.852 39.4931 16.156 38.6131 16.156C37.7331 16.156 36.9851 15.852 36.3691 15.244C35.7611 14.636 35.4571 13.888 35.4571 13C35.4571 12.112 35.7611 11.364 36.3691 10.756C36.9851 10.148 37.7331 9.844 38.6131 9.844C39.4931 9.844 40.2411 10.148 40.8571 10.756C41.4731 11.364 41.7811 12.112 41.7811 13C41.7811 13.888 41.4731 14.636 40.8571 15.244ZM38.6131 15.136C39.2131 15.136 39.7171 14.932 40.1251 14.524C40.5331 14.116 40.7371 13.608 40.7371 13C40.7371 12.392 40.5331 11.884 40.1251 11.476C39.7171 11.068 39.2131 10.864 38.6131 10.864C38.0211 10.864 37.5211 11.068 37.1131 11.476C36.7051 11.884 36.5011 12.392 36.5011 13C36.5011 13.608 36.7051 14.116 37.1131 14.524C37.5211 14.932 38.0211 15.136 38.6131 15.136ZM43.9358 11.008C44.2798 10.264 44.9038 9.892 45.8078 9.892V10.984C45.2958 10.96 44.8558 11.096 44.4878 11.392C44.1198 11.688 43.9358 12.164 43.9358 12.82V16H42.8918V10H43.9358V11.008ZM50.114 11.008H48.518V14.26C48.518 14.556 48.574 14.768 48.686 14.896C48.806 15.016 48.986 15.08 49.226 15.088C49.466 15.088 49.762 15.08 50.114 15.064V16C49.202 16.12 48.534 16.048 48.11 15.784C47.686 15.512 47.474 15.004 47.474 14.26V11.008H46.286V10H47.474V8.632L48.518 8.32V10H50.114V11.008ZM54.0093 8.452C52.9533 8.364 52.4253 8.82 52.4253 9.82V10H54.0093V11.008H52.4253V16H51.3813V11.008H50.4213V10H51.3813V9.82C51.3813 9.012 51.6053 8.4 52.0533 7.984C52.5093 7.568 53.1613 7.388 54.0093 7.444V8.452ZM59.4201 15.244C58.8041 15.852 58.0561 16.156 57.1761 16.156C56.2961 16.156 55.5481 15.852 54.9321 15.244C54.3241 14.636 54.0201 13.888 54.0201 13C54.0201 12.112 54.3241 11.364 54.9321 10.756C55.5481 10.148 56.2961 9.844 57.1761 9.844C58.0561 9.844 58.8041 10.148 59.4201 10.756C60.0361 11.364 60.3441 12.112 60.3441 13C60.3441 13.888 60.0361 14.636 59.4201 15.244ZM57.1761 15.136C57.7761 15.136 58.2801 14.932 58.6881 14.524C59.0961 14.116 59.3001 13.608 59.3001 13C59.3001 12.392 59.0961 11.884 58.6881 11.476C58.2801 11.068 57.7761 10.864 57.1761 10.864C56.5841 10.864 56.0841 11.068 55.6761 11.476C55.2681 11.884 55.0641 12.392 55.0641 13C55.0641 13.608 55.2681 14.116 55.6761 14.524C56.0841 14.932 56.5841 15.136 57.1761 15.136ZM61.4548 16V7.24H62.4988V16H61.4548ZM64.4995 8.908C64.2995 8.908 64.1315 8.84 63.9955 8.704C63.8595 8.568 63.7915 8.404 63.7915 8.212C63.7915 8.02 63.8595 7.856 63.9955 7.72C64.1315 7.576 64.2995 7.504 64.4995 7.504C64.6915 7.504 64.8555 7.576 64.9915 7.72C65.1275 7.856 65.1955 8.02 65.1955 8.212C65.1955 8.404 65.1275 8.568 64.9915 8.704C64.8555 8.84 64.6915 8.908 64.4995 8.908ZM63.9715 16V10H65.0155V16H63.9715ZM71.5523 15.244C70.9363 15.852 70.1883 16.156 69.3083 16.156C68.4283 16.156 67.6803 15.852 67.0643 15.244C66.4563 14.636 66.1523 13.888 66.1523 13C66.1523 12.112 66.4563 11.364 67.0643 10.756C67.6803 10.148 68.4283 9.844 69.3083 9.844C70.1883 9.844 70.9363 10.148 71.5523 10.756C72.1683 11.364 72.4763 12.112 72.4763 13C72.4763 13.888 72.1683 14.636 71.5523 15.244ZM69.3083 15.136C69.9083 15.136 70.4123 14.932 70.8203 14.524C71.2283 14.116 71.4323 13.608 71.4323 13C71.4323 12.392 71.2283 11.884 70.8203 11.476C70.4123 11.068 69.9083 10.864 69.3083 10.864C68.7163 10.864 68.2163 11.068 67.8083 11.476C67.4003 11.884 67.1963 12.392 67.1963 13C67.1963 13.608 67.4003 14.116 67.8083 14.524C68.2163 14.932 68.7163 15.136 69.3083 15.136ZM81.435 10H82.479V16H81.435V14.968C80.915 15.76 80.159 16.156 79.167 16.156C78.327 16.156 77.611 15.852 77.019 15.244C76.427 14.628 76.131 13.88 76.131 13C76.131 12.12 76.427 11.376 77.019 10.768C77.611 10.152 78.327 9.844 79.167 9.844C80.159 9.844 80.915 10.24 81.435 11.032V10ZM79.299 15.148C79.907 15.148 80.415 14.944 80.823 14.536C81.231 14.12 81.435 13.608 81.435 13C81.435 12.392 81.231 11.884 80.823 11.476C80.415 11.06 79.907 10.852 79.299 10.852C78.699 10.852 78.195 11.06 77.787 11.476C77.379 11.884 77.175 12.392 77.175 13C77.175 13.608 77.379 14.12 77.787 14.536C78.195 14.944 78.699 15.148 79.299 15.148ZM86.9288 9.844C87.6328 9.844 88.1968 10.068 88.6208 10.516C89.0448 10.956 89.2568 11.556 89.2568 12.316V16H88.2128V12.376C88.2128 11.888 88.0808 11.512 87.8168 11.248C87.5528 10.976 87.1888 10.84 86.7248 10.84C86.2048 10.84 85.7848 11.004 85.4648 11.332C85.1448 11.652 84.9848 12.148 84.9848 12.82V16H83.9408V10H84.9848V10.864C85.4088 10.184 86.0568 9.844 86.9288 9.844ZM95.5622 10H96.6062V16H95.5622V14.968C95.0422 15.76 94.2862 16.156 93.2942 16.156C92.4542 16.156 91.7382 15.852 91.1462 15.244C90.5542 14.628 90.2582 13.88 90.2582 13C90.2582 12.12 90.5542 11.376 91.1462 10.768C91.7382 10.152 92.4542 9.844 93.2942 9.844C94.2862 9.844 95.0422 10.24 95.5622 11.032V10ZM93.4262 15.148C94.0342 15.148 94.5422 14.944 94.9502 14.536C95.3582 14.12 95.5622 13.608 95.5622 13C95.5622 12.392 95.3582 11.884 94.9502 11.476C94.5422 11.06 94.0342 10.852 93.4262 10.852C92.8262 10.852 92.3222 11.06 91.9142 11.476C91.5062 11.884 91.3022 12.392 91.3022 13C91.3022 13.608 91.5062 14.12 91.9142 14.536C92.3222 14.944 92.8262 15.148 93.4262 15.148ZM98.0679 16V7.24H99.1119V16H98.0679ZM104.773 10H105.889L103.441 16.372C103.185 17.052 102.825 17.568 102.361 17.92C101.905 18.28 101.377 18.44 100.777 18.4V17.428C101.513 17.484 102.053 17.076 102.397 16.204L102.505 15.976L99.8887 10H101.005L103.045 14.704L104.773 10ZM107.165 11.62C107.165 11.852 107.281 12.04 107.513 12.184C107.745 12.32 108.025 12.432 108.353 12.52C108.681 12.6 109.009 12.696 109.337 12.808C109.665 12.912 109.945 13.096 110.177 13.36C110.409 13.616 110.525 13.948 110.525 14.356C110.525 14.9 110.313 15.336 109.889 15.664C109.473 15.992 108.937 16.156 108.281 16.156C107.697 16.156 107.197 16.028 106.781 15.772C106.365 15.516 106.069 15.176 105.893 14.752L106.793 14.236C106.889 14.524 107.069 14.752 107.333 14.92C107.597 15.088 107.913 15.172 108.281 15.172C108.625 15.172 108.909 15.108 109.133 14.98C109.357 14.844 109.469 14.636 109.469 14.356C109.469 14.124 109.353 13.94 109.121 13.804C108.889 13.66 108.609 13.548 108.281 13.468C107.953 13.38 107.625 13.28 107.297 13.168C106.969 13.056 106.689 12.872 106.457 12.616C106.225 12.36 106.109 12.032 106.109 11.632C106.109 11.112 106.309 10.684 106.709 10.348C107.117 10.012 107.625 9.844 108.233 9.844C108.721 9.844 109.153 9.956 109.529 10.18C109.913 10.396 110.201 10.7 110.393 11.092L109.517 11.584C109.301 11.072 108.873 10.816 108.233 10.816C107.937 10.816 107.685 10.888 107.477 11.032C107.269 11.168 107.165 11.364 107.165 11.62ZM112.111 8.908C111.911 8.908 111.743 8.84 111.607 8.704C111.471 8.568 111.403 8.404 111.403 8.212C111.403 8.02 111.471 7.856 111.607 7.72C111.743 7.576 111.911 7.504 112.111 7.504C112.303 7.504 112.467 7.576 112.603 7.72C112.739 7.856 112.807 8.02 112.807 8.212C112.807 8.404 112.739 8.568 112.603 8.704C112.467 8.84 112.303 8.908 112.111 8.908ZM111.583 16V10H112.627V16H111.583ZM114.988 11.62C114.988 11.852 115.104 12.04 115.336 12.184C115.568 12.32 115.848 12.432 116.176 12.52C116.504 12.6 116.832 12.696 117.16 12.808C117.488 12.912 117.768 13.096 118 13.36C118.232 13.616 118.348 13.948 118.348 14.356C118.348 14.9 118.136 15.336 117.712 15.664C117.296 15.992 116.76 16.156 116.104 16.156C115.52 16.156 115.02 16.028 114.604 15.772C114.188 15.516 113.892 15.176 113.716 14.752L114.616 14.236C114.712 14.524 114.892 14.752 115.156 14.92C115.42 15.088 115.736 15.172 116.104 15.172C116.448 15.172 116.732 15.108 116.956 14.98C117.18 14.844 117.292 14.636 117.292 14.356C117.292 14.124 117.176 13.94 116.944 13.804C116.712 13.66 116.432 13.548 116.104 13.468C115.776 13.38 115.448 13.28 115.12 13.168C114.792 13.056 114.512 12.872 114.28 12.616C114.048 12.36 113.932 12.032 113.932 11.632C113.932 11.112 114.132 10.684 114.532 10.348C114.94 10.012 115.448 9.844 116.056 9.844C116.544 9.844 116.976 9.956 117.352 10.18C117.736 10.396 118.024 10.7 118.216 11.092L117.34 11.584C117.124 11.072 116.696 10.816 116.056 10.816C115.76 10.816 115.508 10.888 115.3 11.032C115.092 11.168 114.988 11.364 114.988 11.62Z"
        fill="url(#paint1_linear_1789_5710)" />
    <defs>
        <linearGradient id="paint0_linear_1789_5710" x1="0.5" y1="13" x2="112.797" y2="44.1794"
            gradientUnits="userSpaceOnUse">
            <stop stop-color="#62B3FF" />
            <stop offset="0.596154" stop-color="#FF8C9F" />
            <stop offset="1" stop-color="#FE0166" />
        </linearGradient>
        <linearGradient id="paint1_linear_1789_5710" x1="28.5" y1="13" x2="106.47" y2="34.7219"
            gradientUnits="userSpaceOnUse">
            <stop stop-color="#62B3FF" />
            <stop offset="0.596154" stop-color="#FF8C9F" />
            <stop offset="1" stop-color="#FE0166" />
        </linearGradient>
    </defs>
</svg>
    